<svg width="134" height="20" viewBox="0 0 134 20" fill="none" xmlns="http://www.w3.org/2000/svg">
<path d="M8.81974 6.11588V0.472103H11.8026V15.515H8.81974V8.77682H2.98283V15.515H0V0.472103H2.98283V6.11588H8.81974Z" fill="#111827"/>
<path d="M23.0454 9.95708C23.0454 9.5279 22.9667 9.12733 22.8093 8.75537C22.6662 8.3691 22.466 8.04006 22.2085 7.76824C21.9509 7.48212 21.6434 7.26037 21.2857 7.103C20.9424 6.94564 20.5632 6.86695 20.1484 6.86695C19.7335 6.86695 19.3472 6.94564 18.9896 7.103C18.6462 7.26037 18.3458 7.48212 18.0883 7.76824C17.8308 8.04006 17.6233 8.36195 17.466 8.73391C17.3229 9.10587 17.2514 9.51359 17.2514 9.95708C17.2514 10.4006 17.3229 10.8083 17.466 11.1803C17.609 11.5522 17.8093 11.8741 18.0668 12.1459C18.3243 12.4177 18.6248 12.6323 18.9681 12.7897C19.3258 12.9471 19.712 13.0258 20.1269 13.0258C20.5418 13.0258 20.9281 12.9471 21.2857 12.7897C21.6434 12.6323 21.9509 12.4177 22.2085 12.1459C22.466 11.8741 22.6662 11.5522 22.8093 11.1803C22.9667 10.794 23.0454 10.3863 23.0454 9.95708ZM19.7406 4.18455C20.3987 4.18455 21.0067 4.30615 21.5647 4.54936C22.1369 4.77825 22.6305 5.1216 23.0454 5.5794V4.35622H26.0067V15.515H23.0454V14.2918C22.1441 15.2504 21.0497 15.7296 19.7621 15.7296C19.0182 15.7296 18.3172 15.5722 17.6591 15.2575C17.001 14.9428 16.4216 14.5207 15.9209 13.9914C15.4202 13.4478 15.0196 12.8255 14.7192 12.1245C14.4331 11.4092 14.29 10.6581 14.29 9.87125C14.29 9.08441 14.4331 8.34764 14.7192 7.66094C15.0053 6.95994 15.3916 6.35193 15.878 5.83691C16.3787 5.32189 16.9581 4.92132 17.6162 4.63519C18.2886 4.33476 18.9967 4.18455 19.7406 4.18455Z" fill="#111827"/>
<path d="M32.0452 0.515021V15.515H29.1052V0.515021H32.0452Z" fill="#111827"/>
<path d="M41.9203 11.073C42.1062 11.6452 42.5068 12.1173 43.122 12.4893C43.7371 12.8469 44.4453 13.0258 45.2464 13.0258C46.0762 13.0258 46.7557 12.8326 47.2851 12.4464C47.8287 12.0458 48.1005 11.5451 48.1005 10.9442C48.1005 10.4006 47.8573 9.96423 47.3709 9.63519C46.8845 9.29185 46.1191 9.02003 45.0748 8.81974C43.3866 8.4907 42.1134 7.94707 41.255 7.18884C40.411 6.43062 39.9889 5.48641 39.9889 4.35622C39.9889 3.74106 40.1105 3.18312 40.3537 2.6824C40.6112 2.18169 40.9689 1.7525 41.4267 1.39485C41.8988 1.0372 42.4567 0.765379 43.1005 0.579399C43.7586 0.379113 44.4954 0.27897 45.3108 0.27897C46.6556 0.27897 47.7858 0.543634 48.7014 1.07296C49.6313 1.60229 50.2679 2.35336 50.6112 3.32618L48.4653 4.29185C48.2937 3.83405 47.9432 3.4764 47.4138 3.21889C46.8988 2.94707 46.2622 2.81116 45.5039 2.81116C44.6885 2.81116 44.0233 2.96137 43.5082 3.2618C43.0075 3.54793 42.7572 3.92704 42.7572 4.39914C42.7572 5.27182 43.8301 5.94421 45.9761 6.41631C47.7071 6.80258 48.9875 7.36767 49.8173 8.11159C50.6613 8.8412 51.0833 9.78541 51.0833 10.9442C51.0833 11.6309 50.9403 12.2675 50.6542 12.8541C50.368 13.4406 49.9675 13.9485 49.4524 14.3777C48.9517 14.8069 48.3509 15.1431 47.6499 15.3863C46.9489 15.6152 46.1906 15.7296 45.3752 15.7296C44.6885 15.7296 44.0447 15.6438 43.4439 15.4721C42.843 15.3004 42.2922 15.0572 41.7915 14.7425C41.3051 14.4278 40.8831 14.0486 40.5254 13.6052C40.1678 13.1474 39.8888 12.6395 39.6885 12.0815L41.9203 11.073Z" fill="#111827"/>
<path d="M61.563 9.95708C61.563 9.5279 61.4843 9.12733 61.3269 8.75537C61.1839 8.3691 60.9836 8.04006 60.7261 7.76824C60.4686 7.48212 60.161 7.26037 59.8033 7.103C59.46 6.94564 59.0809 6.86695 58.666 6.86695C58.2511 6.86695 57.8649 6.94564 57.5072 7.103C57.1639 7.26037 56.8634 7.48212 56.6059 7.76824C56.3484 8.04006 56.141 8.36195 55.9836 8.73391C55.8405 9.10587 55.769 9.51359 55.769 9.95708C55.769 10.4006 55.8405 10.8083 55.9836 11.1803C56.1267 11.5522 56.3269 11.8741 56.5845 12.1459C56.842 12.4177 57.1424 12.6323 57.4857 12.7897C57.8434 12.9471 58.2297 13.0258 58.6445 13.0258C59.0594 13.0258 59.4457 12.9471 59.8033 12.7897C60.161 12.6323 60.4686 12.4177 60.7261 12.1459C60.9836 11.8741 61.1839 11.5522 61.3269 11.1803C61.4843 10.794 61.563 10.3863 61.563 9.95708ZM58.2583 4.18455C58.9164 4.18455 59.5244 4.30615 60.0823 4.54936C60.6546 4.77825 61.1481 5.1216 61.563 5.5794V4.35622H64.5244V15.515H61.563V14.2918C60.6617 15.2504 59.5673 15.7296 58.2797 15.7296C57.5358 15.7296 56.8348 15.5722 56.1767 15.2575C55.5186 14.9428 54.9392 14.5207 54.4385 13.9914C53.9378 13.4478 53.5372 12.8255 53.2368 12.1245C52.9507 11.4092 52.8076 10.6581 52.8076 9.87125C52.8076 9.08441 52.9507 8.34764 53.2368 7.66094C53.5229 6.95994 53.9092 6.35193 54.3956 5.83691C54.8963 5.32189 55.4757 4.92132 56.1338 4.63519C56.8062 4.33476 57.5144 4.18455 58.2583 4.18455Z" fill="#111827"/>
<path d="M78.5885 4.37768L73.7388 8.56223L78.7817 15.5365H75.1121L71.507 10.515L70.4984 11.3949V15.515H67.5585V0.493562H70.4984V7.57511L74.2538 4.37768H78.5885Z" fill="#111827"/>
<path d="M85.3078 15.7082C84.664 15.7082 84.0632 15.5866 83.5052 15.3433C82.9616 15.1001 82.4823 14.7711 82.0674 14.3562C81.6669 13.9413 81.3521 13.4478 81.1232 12.8755C80.8943 12.3033 80.7799 11.6881 80.7799 11.03V4.33476H83.7413V10.8369C83.7413 11.4521 83.9487 11.9599 84.3636 12.3605C84.7785 12.7611 85.3078 12.9614 85.9516 12.9614C86.2949 12.9614 86.6096 12.9041 86.8958 12.7897C87.1962 12.6609 87.4537 12.4893 87.6683 12.2747C87.8829 12.0601 88.0474 11.8097 88.1619 11.5236C88.2906 11.2232 88.355 10.9013 88.355 10.5579V4.33476H91.3164V15.515H88.355V14.3562C88.0403 14.7711 87.6111 15.1001 87.0674 15.3433C86.5238 15.5866 85.9373 15.7082 85.3078 15.7082Z" fill="#111827"/>
<path d="M97.2381 5.64378C97.7818 5.08584 98.4255 4.70672 99.1694 4.50644C99.9134 4.30615 100.657 4.20601 101.401 4.20601L100.5 6.93133C99.4842 6.93133 98.683 7.16738 98.0965 7.63949C97.5242 8.09728 97.2381 8.86266 97.2381 9.93562V15.4936H94.2982V4.35622H97.2381V5.64378Z" fill="#111827"/>
<path d="M110.768 9.95708C110.768 9.5279 110.69 9.12733 110.532 8.75537C110.389 8.3691 110.189 8.04006 109.931 7.76824C109.674 7.48212 109.366 7.26037 109.009 7.103C108.665 6.94564 108.286 6.86695 107.871 6.86695C107.456 6.86695 107.07 6.94564 106.713 7.103C106.369 7.26037 106.069 7.48212 105.811 7.76824C105.554 8.04006 105.346 8.36195 105.189 8.73391C105.046 9.10587 104.974 9.51359 104.974 9.95708C104.974 10.4006 105.046 10.8083 105.189 11.1803C105.332 11.5522 105.532 11.8741 105.79 12.1459C106.047 12.4177 106.348 12.6323 106.691 12.7897C107.049 12.9471 107.435 13.0258 107.85 13.0258C108.265 13.0258 108.651 12.9471 109.009 12.7897C109.366 12.6323 109.674 12.4177 109.931 12.1459C110.189 11.8741 110.389 11.5522 110.532 11.1803C110.69 10.794 110.768 10.3863 110.768 9.95708ZM107.464 4.18455C108.122 4.18455 108.73 4.30615 109.288 4.54936C109.86 4.77825 110.353 5.1216 110.768 5.5794V4.35622H113.73V15.515H110.768V14.2918C109.867 15.2504 108.773 15.7296 107.485 15.7296C106.741 15.7296 106.04 15.5722 105.382 15.2575C104.724 14.9428 104.145 14.5207 103.644 13.9914C103.143 13.4478 102.743 12.8255 102.442 12.1245C102.156 11.4092 102.013 10.6581 102.013 9.87125C102.013 9.08441 102.156 8.34764 102.442 7.66094C102.728 6.95994 103.115 6.35193 103.601 5.83691C104.102 5.32189 104.681 4.92132 105.339 4.63519C106.012 4.33476 106.72 4.18455 107.464 4.18455Z" fill="#111827"/>
<path d="M115.634 9.78541C115.634 9.01288 115.769 8.28326 116.041 7.59657C116.327 6.90987 116.714 6.31617 117.2 5.81545C117.686 5.30043 118.252 4.89986 118.895 4.61373C119.539 4.3133 120.233 4.16309 120.977 4.16309C122.279 4.16309 123.38 4.62804 124.282 5.55794V4.35622H127.264V14.6781C127.264 15.4793 127.121 16.2017 126.835 16.8455C126.549 17.5036 126.141 18.0615 125.612 18.5193C125.097 18.9914 124.475 19.3562 123.745 19.6137C123.03 19.8712 122.229 20 121.342 20C119.625 20 118.244 19.4921 117.2 18.4764L117.951 16.1803C118.28 16.5522 118.709 16.8455 119.239 17.0601C119.782 17.2747 120.376 17.382 121.02 17.382C121.478 17.382 121.907 17.3247 122.307 17.2103C122.708 17.0959 123.051 16.9385 123.337 16.7382C123.624 16.5379 123.845 16.2947 124.003 16.0086C124.174 15.7368 124.26 15.4363 124.26 15.1073V14.2489C123.359 15.1788 122.279 15.6438 121.02 15.6438C120.29 15.6438 119.596 15.4864 118.938 15.1717C118.294 14.8569 117.722 14.4349 117.222 13.9056C116.735 13.3763 116.349 12.7539 116.063 12.0386C115.777 11.3233 115.634 10.5722 115.634 9.78541ZM121.428 12.9185C121.842 12.9185 122.222 12.8469 122.565 12.7039C122.923 12.5465 123.223 12.3391 123.466 12.0815C123.724 11.8097 123.924 11.495 124.067 11.1373C124.21 10.7654 124.282 10.3648 124.282 9.93562C124.282 9.50644 124.21 9.10587 124.067 8.73391C123.924 8.34764 123.724 8.0186 123.466 7.74678C123.209 7.47496 122.901 7.26037 122.543 7.103C122.2 6.94564 121.821 6.86695 121.406 6.86695C121.005 6.86695 120.634 6.94564 120.29 7.103C119.947 7.24607 119.654 7.45351 119.41 7.72532C119.167 7.99714 118.974 8.31903 118.831 8.69099C118.688 9.06295 118.616 9.47067 118.616 9.91416C118.616 10.3577 118.688 10.7654 118.831 11.1373C118.974 11.495 119.167 11.8097 119.41 12.0815C119.654 12.3391 119.947 12.5465 120.29 12.7039C120.648 12.8469 121.027 12.9185 121.428 12.9185Z" fill="#111827"/>
<path d="M130.236 1.60944C130.236 1.15165 130.394 0.772533 130.708 0.472103C131.023 0.157368 131.402 0 131.846 0C132.303 0 132.69 0.157368 133.004 0.472103C133.319 0.772533 133.477 1.15165 133.477 1.60944C133.477 2.06724 133.319 2.4535 133.004 2.76824C132.69 3.08298 132.303 3.24034 131.846 3.24034C131.402 3.24034 131.023 3.08298 130.708 2.76824C130.394 2.4535 130.236 2.06724 130.236 1.60944ZM133.326 4.35622V15.515H130.386V4.35622H133.326Z" fill="#111827"/>
</svg>
